<?xml version="1.0" standalone="no"?>
<svg xmlns:xlink="http://www.w3.org/1999/xlink" id="wave" style="transform:rotate(0deg); transition: 0.3s" viewBox="0 0 1440 320" version="1.1" xmlns="http://www.w3.org/2000/svg"><defs><linearGradient id="sw-gradient-0" x1="0" x2="0" y1="1" y2="0"><stop stop-color="rgba(23.868, 30.675, 42.432, 1)" offset="0%"/><stop stop-color="rgba(23.868, 30.675, 42.432, 1)" offset="100%"/></linearGradient></defs><path style="transform:translate(0, 0px); opacity:1" fill="url(#sw-gradient-0)" d="M0,0L60,21.3C120,43,240,85,360,90.7C480,96,600,64,720,64C840,64,960,96,1080,138.7C1200,181,1320,235,1440,218.7C1560,203,1680,117,1800,101.3C1920,85,2040,139,2160,133.3C2280,128,2400,64,2520,58.7C2640,53,2760,107,2880,154.7C3000,203,3120,245,3240,240C3360,235,3480,181,3600,144C3720,107,3840,85,3960,64C4080,43,4200,21,4320,21.3C4440,21,4560,43,4680,74.7C4800,107,4920,149,5040,186.7C5160,224,5280,256,5400,261.3C5520,267,5640,245,5760,245.3C5880,245,6000,267,6120,250.7C6240,235,6360,181,6480,149.3C6600,117,6720,107,6840,106.7C6960,107,7080,117,7200,122.7C7320,128,7440,128,7560,154.7C7680,181,7800,235,7920,234.7C8040,235,8160,181,8280,138.7C8400,96,8520,64,8580,48L8640,32L8640,320L8580,320C8520,320,8400,320,8280,320C8160,320,8040,320,7920,320C7800,320,7680,320,7560,320C7440,320,7320,320,7200,320C7080,320,6960,320,6840,320C6720,320,6600,320,6480,320C6360,320,6240,320,6120,320C6000,320,5880,320,5760,320C5640,320,5520,320,5400,320C5280,320,5160,320,5040,320C4920,320,4800,320,4680,320C4560,320,4440,320,4320,320C4200,320,4080,320,3960,320C3840,320,3720,320,3600,320C3480,320,3360,320,3240,320C3120,320,3000,320,2880,320C2760,320,2640,320,2520,320C2400,320,2280,320,2160,320C2040,320,1920,320,1800,320C1680,320,1560,320,1440,320C1320,320,1200,320,1080,320C960,320,840,320,720,320C600,320,480,320,360,320C240,320,120,320,60,320L0,320Z"/></svg>