<?xml version="1.0" standalone="no"?>
<svg xmlns:xlink="http://www.w3.org/1999/xlink" id="wave" style="transform:rotate(0deg); transition: 0.3s" viewBox="0 0 1440 490" version="1.1" xmlns="http://www.w3.org/2000/svg"><defs><linearGradient id="sw-gradient-0" x1="0" x2="0" y1="1" y2="0"><stop stop-color="rgba(23.868, 30.675, 42.432, 1)" offset="0%"/><stop stop-color="rgba(23.868, 30.675, 42.432, 1)" offset="100%"/></linearGradient></defs><path style="transform:translate(0, 0px); opacity:1" fill="url(#sw-gradient-0)" d="M0,0L60,32.7C120,65,240,131,360,138.8C480,147,600,98,720,98C840,98,960,147,1080,212.3C1200,278,1320,359,1440,334.8C1560,310,1680,180,1800,155.2C1920,131,2040,212,2160,204.2C2280,196,2400,98,2520,89.8C2640,82,2760,163,2880,236.8C3000,310,3120,376,3240,367.5C3360,359,3480,278,3600,220.5C3720,163,3840,131,3960,98C4080,65,4200,33,4320,32.7C4440,33,4560,65,4680,114.3C4800,163,4920,229,5040,285.8C5160,343,5280,392,5400,400.2C5520,408,5640,376,5760,375.7C5880,376,6000,408,6120,383.8C6240,359,6360,278,6480,228.7C6600,180,6720,163,6840,163.3C6960,163,7080,180,7200,187.8C7320,196,7440,196,7560,236.8C7680,278,7800,359,7920,359.3C8040,359,8160,278,8280,212.3C8400,147,8520,98,8580,73.5L8640,49L8640,490L8580,490C8520,490,8400,490,8280,490C8160,490,8040,490,7920,490C7800,490,7680,490,7560,490C7440,490,7320,490,7200,490C7080,490,6960,490,6840,490C6720,490,6600,490,6480,490C6360,490,6240,490,6120,490C6000,490,5880,490,5760,490C5640,490,5520,490,5400,490C5280,490,5160,490,5040,490C4920,490,4800,490,4680,490C4560,490,4440,490,4320,490C4200,490,4080,490,3960,490C3840,490,3720,490,3600,490C3480,490,3360,490,3240,490C3120,490,3000,490,2880,490C2760,490,2640,490,2520,490C2400,490,2280,490,2160,490C2040,490,1920,490,1800,490C1680,490,1560,490,1440,490C1320,490,1200,490,1080,490C960,490,840,490,720,490C600,490,480,490,360,490C240,490,120,490,60,490L0,490Z"/></svg>