<?xml version="1.0" standalone="no"?>
<svg xmlns:xlink="http://www.w3.org/1999/xlink" id="wave" style="transform:rotate(0deg); transition: 0.3s" viewBox="0 0 1440 330" version="1.1" xmlns="http://www.w3.org/2000/svg"><defs><linearGradient id="sw-gradient-0" x1="0" x2="0" y1="1" y2="0"><stop stop-color="rgba(23.868, 30.675, 42.432, 1)" offset="0%"/><stop stop-color="rgba(23.868, 30.675, 42.432, 1)" offset="100%"/></linearGradient></defs><path style="transform:translate(0, 0px); opacity:1" fill="url(#sw-gradient-0)" d="M0,198L40,187C80,176,160,154,240,126.5C320,99,400,66,480,82.5C560,99,640,165,720,159.5C800,154,880,77,960,49.5C1040,22,1120,44,1200,88C1280,132,1360,198,1440,220C1520,242,1600,220,1680,203.5C1760,187,1840,176,1920,159.5C2000,143,2080,121,2160,121C2240,121,2320,143,2400,137.5C2480,132,2560,99,2640,88C2720,77,2800,88,2880,82.5C2960,77,3040,55,3120,38.5C3200,22,3280,11,3360,16.5C3440,22,3520,44,3600,88C3680,132,3760,198,3840,225.5C3920,253,4000,242,4080,198C4160,154,4240,77,4320,60.5C4400,44,4480,88,4560,126.5C4640,165,4720,198,4800,187C4880,176,4960,121,5040,104.5C5120,88,5200,110,5280,115.5C5360,121,5440,110,5520,110C5600,110,5680,121,5720,126.5L5760,132L5760,330L5720,330C5680,330,5600,330,5520,330C5440,330,5360,330,5280,330C5200,330,5120,330,5040,330C4960,330,4880,330,4800,330C4720,330,4640,330,4560,330C4480,330,4400,330,4320,330C4240,330,4160,330,4080,330C4000,330,3920,330,3840,330C3760,330,3680,330,3600,330C3520,330,3440,330,3360,330C3280,330,3200,330,3120,330C3040,330,2960,330,2880,330C2800,330,2720,330,2640,330C2560,330,2480,330,2400,330C2320,330,2240,330,2160,330C2080,330,2000,330,1920,330C1840,330,1760,330,1680,330C1600,330,1520,330,1440,330C1360,330,1280,330,1200,330C1120,330,1040,330,960,330C880,330,800,330,720,330C640,330,560,330,480,330C400,330,320,330,240,330C160,330,80,330,40,330L0,330Z"/></svg>