<?xml version="1.0" standalone="no"?>
<svg xmlns:xlink="http://www.w3.org/1999/xlink" id="wave" style="transform:rotate(0deg); transition: 0.3s" viewBox="0 0 1440 180" version="1.1" xmlns="http://www.w3.org/2000/svg"><defs><linearGradient id="sw-gradient-0" x1="0" x2="0" y1="1" y2="0"><stop stop-color="rgba(23.868, 30.675, 42.432, 1)" offset="0%"/><stop stop-color="rgba(23.868, 30.675, 42.432, 1)" offset="100%"/></linearGradient></defs><path style="transform:translate(0, 0px); opacity:1" fill="url(#sw-gradient-0)" d="M0,108L40,102C80,96,160,84,240,69C320,54,400,36,480,45C560,54,640,90,720,87C800,84,880,42,960,27C1040,12,1120,24,1200,48C1280,72,1360,108,1440,120C1520,132,1600,120,1680,111C1760,102,1840,96,1920,87C2000,78,2080,66,2160,66C2240,66,2320,78,2400,75C2480,72,2560,54,2640,48C2720,42,2800,48,2880,45C2960,42,3040,30,3120,21C3200,12,3280,6,3360,9C3440,12,3520,24,3600,48C3680,72,3760,108,3840,123C3920,138,4000,132,4080,108C4160,84,4240,42,4320,33C4400,24,4480,48,4560,69C4640,90,4720,108,4800,102C4880,96,4960,66,5040,57C5120,48,5200,60,5280,63C5360,66,5440,60,5520,60C5600,60,5680,66,5720,69L5760,72L5760,180L5720,180C5680,180,5600,180,5520,180C5440,180,5360,180,5280,180C5200,180,5120,180,5040,180C4960,180,4880,180,4800,180C4720,180,4640,180,4560,180C4480,180,4400,180,4320,180C4240,180,4160,180,4080,180C4000,180,3920,180,3840,180C3760,180,3680,180,3600,180C3520,180,3440,180,3360,180C3280,180,3200,180,3120,180C3040,180,2960,180,2880,180C2800,180,2720,180,2640,180C2560,180,2480,180,2400,180C2320,180,2240,180,2160,180C2080,180,2000,180,1920,180C1840,180,1760,180,1680,180C1600,180,1520,180,1440,180C1360,180,1280,180,1200,180C1120,180,1040,180,960,180C880,180,800,180,720,180C640,180,560,180,480,180C400,180,320,180,240,180C160,180,80,180,40,180L0,180Z"/></svg>